<svg xmlns="http://www.w3.org/2000/svg" version="1.1" xmlns:xlink="http://www.w3.org/1999/xlink" xmlns:svgjs="http://svgjs.dev/svgjs" width="1000" height="1000" viewBox="0 0 1000 1000"><rect width="1000" height="1000" fill="#000000"></rect><g transform="matrix(0.7,0,0,0.7,149.57575757575756,282.1265587044535)"><svg viewBox="0 0 396 247" data-background-color="#ffffff" preserveAspectRatio="xMidYMid meet" height="623" width="1000" xmlns="http://www.w3.org/2000/svg" xmlns:xlink="http://www.w3.org/1999/xlink"><g id="tight-bounds" transform="matrix(1,0,0,1,0.2400000000000091,-0.09999999999999432)"><svg viewBox="0 0 395.52 247.2" height="247.2" width="395.52"><g><svg></svg></g><g><svg viewBox="0 0 395.52 247.2" height="247.2" width="395.52"><g transform="matrix(1,0,0,1,39.55199999999999,107.0875903067209)"><svg viewBox="0 0 316.416 33.024819386558185" height="33.024819386558185" width="316.416"><g><svg viewBox="0 0 316.416 33.024819386558185" height="33.024819386558185" width="316.416"><g><svg viewBox="0 0 316.416 33.024819386558185" height="33.024819386558185" width="316.416"><g><svg viewBox="0 0 316.416 33.024819386558185" height="33.024819386558185" width="316.416"><g id="textblocktransform"><svg viewBox="0 0 316.416 33.024819386558185" height="33.024819386558185" width="316.416" id="textblock"><g><svg viewBox="0 0 316.416 33.024819386558185" height="33.024819386558185" width="316.416"><g transform="matrix(1,0,0,1,0,0)"><svg width="316.416" viewBox="1.6100000143051147 -41.939998626708984 404.8013610839844 42.43000030517578" height="33.024819386558185" data-palette-color="#000000"><g class="undefined-text-0" data-fill-palette-color="primary" id="text-0"><path d="M14.45 0.02L1.61-37.35 6.1-37.35 15.53-8.91 16.8-3.91 18.19-8.91 27.39-37.35 31.84-37.35 19.26 0.02 14.45 0.02ZM60.35-5.03L61.55-1.54Q56.49 0.49 50.39 0.49L50.39 0.49Q46.85 0.49 44.38-0.24L44.38-0.24Q40.45-1.37 39.16-4.88L39.16-4.88Q37.96-8.18 37.96-14.65L37.96-14.65 37.96-15.89Q37.96-23.63 41.18-26.76L41.18-26.76Q44.09-29.54 50.88-29.54L50.88-29.54Q57.49-29.54 59.91-26.27L59.91-26.27Q61.08-24.68 61.46-22.42 61.84-20.17 61.84-18.12L61.84-18.12Q61.84-14.92 61.69-13.16L61.69-13.16Q58.25-13.01 55.52-13.01L55.52-13.01Q55.52-13.01 51.58-13.01L51.58-13.01Q45.43-13.01 42.11-13.55L42.11-13.55Q42.11-7.93 43.53-5.71L43.53-5.71Q45.26-3 50.44-3 55.61-3 60.35-5.03L60.35-5.03ZM42.11-16.41L57.71-16.41 57.71-18.75Q57.71-22.58 56.22-24.22L56.22-24.22Q54.56-26.05 50.49-26.05L50.49-26.05Q45.6-26.05 43.82-23.93L43.82-23.93Q42.11-21.9 42.11-16.41L42.11-16.41ZM85.81-25.76L85.81-25.76Q80.95-25.76 76.17-22.95L76.17-22.95 76.17 0 72.11 0 72.11-41.55 76.07-41.94 76.07-26.05Q78.58-28.2 82.61-29.15L82.61-29.15Q84.22-29.54 86.42-29.54 88.62-29.54 90.28-29.04 91.94-28.54 92.91-27.44L92.91-27.44Q94.67-25.46 94.67-20.24L94.67-20.24 94.67 0 90.57 0 90.57-19.51Q90.57-23.02 89.89-24.04 89.2-25.05 88.26-25.4 87.32-25.76 85.81-25.76ZM108.29-36.01L108.29-36.01Q106.66-36.01 106.19-36.47L106.19-36.47Q105.46-37.23 105.46-38.56 105.46-39.89 105.62-40.47 105.78-41.04 106.1-41.36L106.1-41.36Q106.68-41.94 107.89-41.94 109.1-41.94 109.62-41.82 110.15-41.7 110.49-41.36L110.49-41.36Q111.08-40.77 111.08-39.44 111.08-38.11 110.94-37.54 110.81-36.96 110.49-36.62L110.49-36.62Q109.88-36.01 108.29-36.01ZM106.36 0L106.32-29.05 110.32-29.05 110.32 0 106.36 0ZM141.03-4.59L142.25-1.29Q138.86 0.49 132.95 0.49L132.95 0.49Q129.46 0.49 127.82-0.05L127.82-0.05Q123.65-1.46 122.35-4.86L122.35-4.86Q121.45-7.23 121.3-9.96 121.16-12.7 121.16-14.58 121.16-16.46 121.25-18.25 121.35-20.04 121.73-21.7 122.11-23.36 122.89-24.79 123.67-26.22 125.01-27.29L125.01-27.29Q127.92-29.54 133.36-29.54L133.36-29.54Q137.37-29.54 140.74-28.37L140.74-28.37Q141.64-28.08 142.1-27.81L142.1-27.81 140.88-24.19Q136.2-26 133.21-26 130.21-26 128.81-25.32 127.41-24.63 126.63-23.24L126.63-23.24Q125.31-20.85 125.31-14.45L125.31-14.45Q125.31-11.89 125.48-9.78 125.65-7.67 126.33-6.15L126.33-6.15Q127.77-3.03 132.28-3.03 136.78-3.03 141.03-4.59L141.03-4.59ZM173.5-19.41L173.5-10.3Q173.5-5.44 173.96-0.2L173.96-0.2 170.35 0.1 169.74-3.3Q166.64-0.81 161.54 0.17L161.54 0.17Q159.88 0.49 158.58 0.49 157.29 0.49 156.3 0.37 155.31 0.24 154.39-0.11 153.48-0.46 152.7-1.1 151.92-1.73 151.33-2.78L151.33-2.78Q150.09-5 150.09-8.12 150.09-11.23 150.54-12.95 150.99-14.67 152.04-15.82L152.04-15.82Q154.11-18.09 159.02-18.09 163.93-18.09 169.49-16.24L169.49-16.24 169.49-19.41Q169.49-24.71 165.12-25.68L165.12-25.68Q163.71-26 161.88-26L161.88-26Q157.7-26 153.21-24.34L153.21-24.34 152.31-27.86Q153.55-28.69 158.65-29.35L158.65-29.35Q160.27-29.54 162.52-29.54 164.78-29.54 166.96-29 169.13-28.47 170.57-27.25L170.57-27.25Q173.5-24.83 173.5-19.41L173.5-19.41ZM169.4-13.18L169.4-13.18Q163.68-14.62 158.85-14.62L158.85-14.62Q155.87-14.62 154.89-12.92L154.89-12.92Q154.24-11.72 154.24-9.38 154.24-7.03 154.49-5.98 154.75-4.93 155.33-4.25L155.33-4.25Q156.48-2.95 159.12-2.95L159.12-2.95Q163.24-2.95 167.3-5.08L167.3-5.08Q168.54-5.71 169.54-6.49L169.54-6.49Q169.4-9.13 169.4-13.18ZM194.98-25.51L194.98-25.51Q191.86-25.51 188.61-22.39L188.61-22.39 188.61 0 184.56 0 184.56-29.05 188.12-29.05 188.51-25.2Q189.66-26.98 190.99-27.98 192.32-28.98 193.17-29.2L193.17-29.2Q194.39-29.54 195.49-29.54 196.59-29.54 198.25-29.1L198.25-29.1 197.89-25.22Q196.64-25.51 194.98-25.51Z" fill="#ffffff" data-fill-palette-color="primary"></path><path d="M216.48 0L216.48-37.23Q224.42-37.84 229.81-37.84L229.81-37.84 230.3-37.84Q236.19-37.84 238.56-35.21L238.56-35.21Q240.53-32.93 240.53-27.78L240.53-27.78Q240.53-21.19 238.65-17.97L238.65-17.97Q236.72-14.7 232.26-13.87L232.26-13.87Q233.09-12.84 233.89-11.72L233.89-11.72 235.33-9.64 241.75 0 236.87 0 231.26-8.84Q228.91-12.4 227.79-13.55L227.79-13.55 227.52-13.55Q225.79-13.57 224.18-13.62L224.18-13.62 220.64-13.77 220.64 0 216.48 0ZM220.64-34.13L220.64-17.07Q223.2-16.94 228.69-16.94L228.69-16.94Q233.21-16.94 234.84-19.48L234.84-19.48Q236.24-21.7 236.24-27.25L236.24-27.25Q236.24-31.91 234.16-33.35L234.16-33.35Q232.94-34.2 231.49-34.3 230.03-34.4 228.95-34.4 227.86-34.4 226.85-34.39 225.84-34.38 224.83-34.35 223.83-34.33 222.81-34.28L222.81-34.28 220.64-34.13ZM271.07-5.03L272.27-1.54Q267.21 0.49 261.11 0.49L261.11 0.49Q257.57 0.49 255.11-0.24L255.11-0.24Q251.17-1.37 249.88-4.88L249.88-4.88Q248.68-8.18 248.68-14.65L248.68-14.65 248.68-15.89Q248.68-23.63 251.91-26.76L251.91-26.76Q254.81-29.54 261.6-29.54L261.6-29.54Q268.22-29.54 270.63-26.27L270.63-26.27Q271.8-24.68 272.18-22.42 272.56-20.17 272.56-18.12L272.56-18.12Q272.56-14.92 272.41-13.16L272.41-13.16Q268.97-13.01 266.24-13.01L266.24-13.01Q266.24-13.01 262.31-13.01L262.31-13.01Q256.16-13.01 252.83-13.55L252.83-13.55Q252.83-7.93 254.25-5.71L254.25-5.71Q255.98-3 261.16-3 266.34-3 271.07-5.03L271.07-5.03ZM252.83-16.41L268.44-16.41 268.44-18.75Q268.44-22.58 266.95-24.22L266.95-24.22Q265.29-26.05 261.21-26.05L261.21-26.05Q256.33-26.05 254.54-23.93L254.54-23.93Q252.83-21.9 252.83-16.41L252.83-16.41ZM296.56-25.73L296.56-25.73Q291.8-25.73 286.87-22.92L286.87-22.92 286.87 0 282.81 0 282.81-29.05 286.38-29.05 286.77-26.05Q289.43-28.22 293.38-29.15L293.38-29.15Q295-29.54 297.17-29.54 299.34-29.54 301-29.04 302.66-28.54 303.64-27.44L303.64-27.44Q305.42-25.46 305.42-20.24L305.42-20.24 305.42 0 301.32 0 301.32-19.48Q301.32-23 300.64-24.01 299.95-25.02 299.01-25.38 298.07-25.73 296.56-25.73ZM329.03-4.57L330.42-1.39Q326.44 0.49 323.07 0.49L323.07 0.49Q316.97 0.49 316.14-4.74L316.14-4.74Q315.94-5.98 315.94-8.35L315.94-8.35 315.94-25.66 312.42-25.66 312.42-28.66 315.94-29.05 316.57-35.69 319.97-35.69 319.97-29.05 328.44-29.05 328.44-25.66 319.97-25.66 319.97-8.42Q319.97-5.42 320.41-4.59L320.41-4.59Q321.21-3.08 323.63-3.08 326.05-3.08 329.03-4.57L329.03-4.57ZM359.2-19.41L359.2-10.3Q359.2-5.44 359.66-0.2L359.66-0.2 356.05 0.1 355.44-3.3Q352.34-0.81 347.24 0.17L347.24 0.17Q345.58 0.49 344.28 0.49 342.99 0.49 342 0.37 341.01 0.24 340.1-0.11 339.18-0.46 338.4-1.1 337.62-1.73 337.03-2.78L337.03-2.78Q335.79-5 335.79-8.12 335.79-11.23 336.24-12.95 336.69-14.67 337.74-15.82L337.74-15.82Q339.81-18.09 344.72-18.09 349.63-18.09 355.2-16.24L355.2-16.24 355.2-19.41Q355.2-24.71 350.83-25.68L350.83-25.68Q349.41-26 347.58-26L347.58-26Q343.4-26 338.91-24.34L338.91-24.34 338.01-27.86Q339.25-28.69 344.36-29.35L344.36-29.35Q345.97-29.54 348.23-29.54 350.48-29.54 352.66-29 354.83-28.47 356.27-27.25L356.27-27.25Q359.2-24.83 359.2-19.41L359.2-19.41ZM355.1-13.18L355.1-13.18Q349.38-14.62 344.55-14.62L344.55-14.62Q341.57-14.62 340.6-12.92L340.6-12.92Q339.94-11.72 339.94-9.38 339.94-7.03 340.19-5.98 340.45-4.93 341.04-4.25L341.04-4.25Q342.18-2.95 344.82-2.95L344.82-2.95Q348.95-2.95 353-5.08L353-5.08Q354.24-5.71 355.24-6.49L355.24-6.49Q355.1-9.13 355.1-13.18ZM371.18 0L371.14-41.5 375.16-41.85 375.16 0 371.18 0ZM385.22-2.39L386.98-5.76Q392.01-2.95 397.09-2.95L397.09-2.95Q401.31-2.95 402.04-5.96L402.04-5.96Q402.29-6.98 402.29-8.46 402.29-9.94 401.94-10.75 401.6-11.57 400.8-11.98 399.99-12.38 398.66-12.57 397.33-12.77 395.28-13.12 393.23-13.48 391.52-13.92 389.81-14.36 388.61-15.19L388.61-15.19Q386.07-16.97 386.17-21.19L386.17-21.19 386.17-21.8Q386.17-26.25 389.1-28.13L389.1-28.13Q391.93-29.98 398.45-29.39L398.45-29.39Q402.9-28.98 405.53-27.86L405.53-27.86 404.38-24.17Q401.46-25.42 397.35-25.98L397.35-25.98Q396.08-26.15 394.97-26.15 393.86-26.15 392.96-25.98 392.06-25.81 391.45-25.34L391.45-25.34Q390.27-24.39 390.22-21.8L390.22-21.8Q390.15-18.75 391.93-17.92L391.93-17.92Q393.64-17.11 395.99-16.81 398.33-16.5 399.82-16.27 401.31-16.04 402.53-15.65 403.75-15.26 404.63-14.4L404.63-14.4Q406.46-12.67 406.41-8.37L406.41-8.37Q406.29-0.88 400.16 0.17L400.16 0.17Q398.31 0.49 396.45 0.49 394.59 0.49 393.04 0.26 391.49 0.02 390.08-0.39L390.08-0.39Q387.39-1.15 385.22-2.39L385.22-2.39Z" fill="#ffffff" data-fill-palette-color="secondary"></path></g></svg></g></svg></g></svg></g></svg></g><g></g></svg></g></svg></g></svg></g><g mask="url(#312660a0-5bdf-451b-8d2b-cfbbedc9b1e0)"><g transform="matrix(3.5251664504948184, 0, 0, 3.5251664504948184, 39.127509727733155, 1.0000000000000142)"><svg xmlns="http://www.w3.org/2000/svg" xmlns:xlink="http://www.w3.org/1999/xlink" version="1.1" x="0" y="0" viewBox="5 15.221999168395996 90 69.55699920654297" enable-background="new 0 0 100 100" xml:space="preserve" height="69.55699920654297" width="90" class="icon-none" data-fill-palette-color="accent" id="none"><path fill="#ffffff" d="M91.115 38.273c2.486 0 3.885-2.75 3.885-3.551 0-0.807-1.603-3.218-4.757-3.218-3.142 0-4.218 2.012-4.218 2.679 0 0 0.204 2.75-1.206 2.75-1.409 0-3.088-6.898-4.628-10.32-1.539-3.417-3.486-6.904-4.219-7.91-0.742-1.006-3.755-2.744-10.525-2.948 0 0-9.18-0.533-15.411-0.533 0 0-0.01 0.118-0.032 0.317-0.033-0.199-0.033-0.317-0.033-0.317-6.242 0-15.421 0.533-15.421 0.533-6.769 0.204-9.783 1.942-10.525 2.948-0.732 1.006-2.68 4.493-4.219 7.91-1.539 3.422-3.218 10.32-4.628 10.32-1.409 0-1.205-2.75-1.205-2.75 0-0.667-1.066-2.679-4.218-2.679C6.603 31.504 5 33.914 5 34.721c0 0.802 1.409 3.551 3.885 3.551 2.475 0 2.948 0 2.948 0s0.334 0.872 0 2.012C11.5 41.42 6.539 47.075 6.539 51.273c0 1.878 0 30.16 0 31.531 0 1.378 1.948 1.975 5.155 1.975 3.218 0 5.23-0.398 5.704-1.469 0.463-1.076 0.399-2.481 0.399-2.481s24.289 0 31.811 0c0.14 0 0.269-0.027 0.399-0.065 0.118 0.038 0.247 0.065 0.387 0.065 7.522 0 31.811 0 31.811 0s-0.065 1.404 0.398 2.481c0.474 1.071 2.486 1.469 5.704 1.469 3.207 0 5.155-0.597 5.155-1.975 0-1.372 0-29.653 0-31.531 0-4.014-4.961-9.852-5.295-10.988-0.333-1.14 0-2.012 0-2.012S88.64 38.273 91.115 38.273zM17.72 74.189c-1.7 0-3.089-1.383-3.089-3.088 0-1.706 1.389-3.089 3.089-3.089 1.711 0 3.089 1.383 3.089 3.089C20.809 72.807 19.431 74.189 17.72 74.189zM20.873 50.137c-1.506 2.804-4.746 3.993-7.232 2.658-2.486-1.339-3.282-4.697-1.775-7.501 1.507-2.803 4.746-3.992 7.232-2.652C21.595 43.976 22.38 47.334 20.873 50.137zM66.277 71.101H33.734v-6.532h32.543V71.101zM82.28 74.189c-1.7 0-3.089-1.383-3.089-3.088 0-1.706 1.388-3.089 3.089-3.089 1.711 0 3.089 1.383 3.089 3.089C85.368 72.807 83.991 74.189 82.28 74.189zM85.874 52.795c-2.497 1.334-5.736 0.146-7.242-2.658-1.507-2.803-0.71-6.161 1.775-7.495 2.486-1.34 5.726-0.151 7.243 2.652C89.156 48.098 88.36 51.456 85.874 52.795z" data-fill-palette-color="accent"></path></svg></g></g></svg></g><defs><mask id="6736154a-3ebe-4abd-a99c-a58dc1bc1490"><rect width="640" height="400" fill="white"></rect><rect width="348.05760000000004" height="50.1567082427316" fill="black" y="98.52164587863419" x="23.731199999999973" id="transform-me"></rect></mask><mask id="29963f49-a517-48cc-97a8-300fba9362c6"><rect width="640" height="400" fill="white"></rect><rect width="348.05760000000004" height="50.1567082427316" fill="black" y="98.52164587863419" x="23.731199999999973" id="transform-me"></rect></mask><mask id="2584db02-002c-4893-973d-4b02a0eeb5e0"><rect width="640" height="400" fill="white"></rect><rect width="348.05760000000004" height="48.61755390956041" fill="black" y="99.2912230452198" x="23.731199999999973" id="transform-me"></rect></mask><mask id="3b0932b9-29bf-46b4-9b7f-3b20c3ac20d8"><rect width="640" height="400" fill="white"></rect><rect width="435.072" height="60.77194238695051" fill="black" y="93.21402880652474" x="-19.77600000000001" id="transform-me"></rect></mask><mask id="b98ea2ae-0a45-4256-90dc-f5f3105ee3b2"><rect width="640" height="400" fill="white"></rect><rect width="232.03839999999997" height="32.411702606373595" fill="black" y="107.3941486968132" x="81.74080000000001" id="transform-me"></rect></mask><mask id="270e9d07-cde2-4852-9fd7-8e01838ee164"><rect width="640" height="400" fill="white"></rect><rect width="174.02880000000002" height="24.308776954780203" fill="black" y="111.4456115226099" x="110.74559999999998" id="transform-me"></rect></mask><mask id="8f07e14f-064a-4f94-9d34-186f4f46c99d"><rect width="640" height="400" fill="white"></rect><rect width="348.05760000000004" height="48.61755390956041" fill="black" y="99.2912230452198" x="23.731199999999973" id="transform-me"></rect></mask><mask id="56a74bc0-8d10-4181-8d79-12f3d47cffa4"><rect width="640" height="400" fill="white"></rect><rect width="348.05760000000004" height="48.61755390956041" fill="black" y="99.2912230452198" x="23.731199999999973" id="transform-me"></rect></mask><mask id="8ac05a50-a8f7-48dd-8ed0-abd2a7e2835c"><rect width="640" height="400" fill="white"></rect><rect width="348.05760000000004" height="41.22931233252001" fill="black" y="102.98534383373999" x="23.731199999999973" id="transform-me"></rect></mask><mask id="4059e440-8390-48c5-8349-7f7ff9a07c93"><rect width="640" height="400" fill="white"></rect><rect width="348.05760000000004" height="50.754146869171706" fill="black" y="98.22292656541414" x="23.731199999999973" id="transform-me"></rect></mask><mask id="312660a0-5bdf-451b-8d2b-cfbbedc9b1e0"><rect width="640" height="400" fill="white"></rect><rect width="348.05760000000004" height="48.61755390956041" fill="black" y="99.2912230452198" x="23.731199999999973" id="transform-me"></rect></mask></defs></svg><rect width="395.52" height="247.2" fill="none" stroke="none" visibility="hidden"></rect></g></svg></g></svg>